<?xml version="1.0" encoding="UTF-8" standalone="no"?>
<svg
   xmlns:dc="http://purl.org/dc/elements/1.1/"
   xmlns:cc="http://creativecommons.org/ns#"
   xmlns:rdf="http://www.w3.org/1999/02/22-rdf-syntax-ns#"
   xmlns:svg="http://www.w3.org/2000/svg"
   xmlns="http://www.w3.org/2000/svg"
   xmlns:xlink="http://www.w3.org/1999/xlink"
   id="svg1093"
   version="1.1"
   viewBox="0 0 172.55138 83.22644"
   height="83.22644mm"
   width="172.55138mm">
  <defs
     id="defs1087">
    <linearGradient
       gradientTransform="translate(8.1097274,-108.70891)"
       xlink:href="#linearGradient990"
       id="linearGradient992"
       x1="11.190947"
       y1="298.10446"
       x2="159.73296"
       y2="240.0229"
       gradientUnits="userSpaceOnUse" />
    <linearGradient
       id="linearGradient990">
      <stop
         style="stop-color:#0066ff;stop-opacity:1"
         offset="0"
         id="stop986" />
      <stop
         style="stop-color:#5599ff;stop-opacity:1"
         offset="1"
         id="stop988" />
    </linearGradient>
    <linearGradient
       xlink:href="#linearGradient990"
       id="linearGradient1074"
       x1="11.190947"
       y1="298.10446"
       x2="159.73296"
       y2="240.0229"
       gradientUnits="userSpaceOnUse" />
    <linearGradient
       y2="240.0229"
       x2="159.73296"
       y1="298.10446"
       x1="11.190947"
       gradientTransform="translate(8.1097274,-108.70891)"
       gradientUnits="userSpaceOnUse"
       id="linearGradient1695"
       xlink:href="#linearGradient990" />
    <linearGradient
       y2="240.0229"
       x2="159.73296"
       y1="298.10446"
       x1="11.190947"
       gradientTransform="translate(8.1097274,-108.70891)"
       gradientUnits="userSpaceOnUse"
       id="linearGradient1697"
       xlink:href="#linearGradient990" />
    <linearGradient
       y2="240.0229"
       x2="159.73296"
       y1="298.10446"
       x1="11.190947"
       gradientTransform="translate(8.1097274,-108.70891)"
       gradientUnits="userSpaceOnUse"
       id="linearGradient1699"
       xlink:href="#linearGradient990" />
  </defs>
  <metadata
     id="metadata1090">
    <rdf:RDF>
      <cc:Work
         rdf:about="">
        <dc:format>image/svg+xml</dc:format>
        <dc:type
           rdf:resource="http://purl.org/dc/dcmitype/StillImage" />
        <dc:title></dc:title>
      </cc:Work>
    </rdf:RDF>
  </metadata>
  <g
     transform="translate(-23.419951,-86.89869)"
     id="layer1">
    <path
       id="path976"
       style="font-style:normal;font-variant:normal;font-weight:bold;font-stretch:normal;font-size:57.5028px;line-height:1.25;font-family:'Blender Pro';-inkscape-font-specification:'Blender Pro Bold';letter-spacing:0px;word-spacing:0px;fill:url(#linearGradient992);fill-opacity:1;stroke-width:2.31232"
       d="M 80.482853,152.47586 V 86.98397 h -13.03267 l -15.11351,32.30787 -15.33255,-32.30787 h -13.14218 v 65.49189 h 11.49941 v -44.68343 l 13.03266,28.58425 h 7.55676 l 13.03267,-28.69377 v 44.79295 z" />
    <path
       id="path978"
       style="font-style:normal;font-variant:normal;font-weight:bold;font-stretch:normal;font-size:48.5634px;line-height:1.25;font-family:'Akkurat Mono LL';-inkscape-font-specification:'Akkurat Mono LL Bold';letter-spacing:0px;word-spacing:0px;fill:url(#linearGradient1699);fill-opacity:1;stroke-width:2.31232"
       d="m 139.29186,119.54854 c 0,-4.43964 -0.36998,-8.50931 -1.01742,-12.11652 -0.73995,-3.6072 -2.03483,-6.93693 -3.88468,-9.89669 -1.84985,-3.05225 -4.62462,-5.54955 -8.23185,-7.58439 -3.6072,-2.03483 -8.04684,-3.05225 -13.22643,-3.05225 H 91.750713 v 65.57717 h 21.180767 c 5.17959,0 9.61923,-1.01742 13.22643,-2.95976 3.60723,-1.94234 6.28951,-4.34715 8.13935,-7.3994 1.84985,-2.95976 3.14475,-6.38198 3.88469,-10.17417 0.73993,-3.79219 1.10991,-7.95435 1.10991,-12.39399 z m -12.11653,0 c 0,3.6072 -0.27748,7.02943 -0.73993,10.26666 -0.55497,3.23724 -1.75736,5.82703 -3.69971,7.95436 -1.1099,1.2024 -2.5898,2.21982 -4.34714,2.86726 -1.75736,0.73994 -3.97718,1.10991 -6.56698,1.10991 h -8.13932 V 97.62782 h 8.13932 c 2.49731,0 4.62463,0.36997 6.38198,1.01742 1.75737,0.64745 3.14475,1.57237 4.25467,2.68228 1.94234,2.03483 3.23724,4.62462 3.88468,7.86186 0.55495,3.23724 0.83243,6.65946 0.83243,10.35916 z" />
    <path
       id="path980"
       style="font-style:normal;font-variant:normal;font-weight:bold;font-stretch:normal;font-size:48.5634px;line-height:1.25;font-family:'Akkurat Mono LL';-inkscape-font-specification:'Akkurat Mono LL Bold';letter-spacing:0px;word-spacing:0px;fill:url(#linearGradient1697);fill-opacity:1;stroke-width:2.31232"
       d="m 171.92328,127.68788 10.63663,24.78798 h 13.04144 l -12.1165,-27.28528 c 3.69968,-1.10991 6.75195,-3.23724 9.06425,-6.47447 2.31232,-3.23724 3.42223,-7.02943 3.42223,-11.46907 0,-2.68228 -0.46247,-5.17958 -1.2949,-7.67688 -0.92491,-2.4048 -2.31232,-4.53213 -4.16215,-6.47447 -1.84986,-1.84985 -4.16218,-3.32973 -7.02943,-4.53213 -2.86728,-1.10991 -6.197,-1.66487 -10.08168,-1.66487 h -23.58559 v 65.57717 h 12.02402 v -24.78798 z m 12.11652,-20.62583 c 0,3.14475 -0.92494,5.54955 -2.77477,7.30691 -1.84985,1.75736 -4.43965,2.58979 -7.86186,2.58979 H 161.74911 V 97.35034 h 11.65406 c 3.42221,0 6.01201,0.92493 7.86186,2.86727 1.84983,1.94234 2.77477,4.16216 2.77477,6.84444 z" />
    <g
       style="font-weight:bold;font-size:16.0819px;line-height:1.25;font-family:'TheMix C4s';-inkscape-font-specification:'TheMix C4s weight=521';letter-spacing:0px;word-spacing:0px;fill:url(#linearGradient1695);fill-opacity:1;stroke-width:0.402045"
       id="text916"
       aria-label="The Static Markdown Editor">
      <path
         id="path1701"
         style="font-style:normal;font-variant:normal;font-weight:normal;font-stretch:normal;font-family:'Adelle Sans Cnd';-inkscape-font-specification:'Adelle Sans Cnd';fill:url(#linearGradient1695);fill-opacity:1;stroke-width:0.402045"
         d="m 26.330774,169.93214 v -10.40498 h -2.910823 v -1.23831 h 7.204691 v 1.23831 h -2.846497 v 10.40498 z" />
      <path
         id="path1703"
         style="font-style:normal;font-variant:normal;font-weight:normal;font-stretch:normal;font-family:'Adelle Sans Cnd';-inkscape-font-specification:'Adelle Sans Cnd';fill:url(#linearGradient1695);fill-opacity:1;stroke-width:0.402045"
         d="m 37.861485,169.93214 h -1.431289 v -5.54825 q 0,-0.94883 -0.289474,-1.28655 -0.289474,-0.3538 -0.948832,-0.3538 -0.546785,0 -1.029242,0.27339 -0.482457,0.25731 -0.900586,0.64327 v 6.27194 h -1.431289 v -12.14183 h 1.431289 v 4.712 h 0.01608 q 0.434211,-0.41813 0.997078,-0.70761 0.562866,-0.28947 1.286552,-0.28947 1.27047,0 1.78509,0.7076 0.514621,0.69152 0.514621,2.05849 z" />
      <path
         id="path1705"
         style="font-style:normal;font-variant:normal;font-weight:normal;font-stretch:normal;font-family:'Adelle Sans Cnd';-inkscape-font-specification:'Adelle Sans Cnd';fill:url(#linearGradient1695);fill-opacity:1;stroke-width:0.402045"
         d="m 42.702124,170.12513 q -0.916668,0 -1.543862,-0.32164 -0.627194,-0.33772 -1.01316,-0.91667 -0.369883,-0.57895 -0.546784,-1.36696 -0.160819,-0.78801 -0.160819,-1.72076 0,-1.17398 0.25731,-1.99416 0.273392,-0.82018 0.723686,-1.31872 0.450293,-0.51462 1.045323,-0.73976 0.59503,-0.24123 1.254388,-0.24123 0.804095,0 1.35088,0.27339 0.546784,0.27339 0.884504,0.75585 0.353802,0.46638 0.498539,1.12573 0.160819,0.65936 0.160819,1.43129 0,0.24123 -0.01608,0.48246 -0.01608,0.24123 -0.04825,0.48246 h -4.631588 q 0.03216,1.57602 0.514621,2.25146 0.482457,0.65936 1.366962,0.65936 0.723685,0 1.061405,-0.40205 0.33772,-0.41813 0.466375,-1.09357 l 1.222225,0.2734 q -0.225147,1.14181 -0.932751,1.769 -0.691521,0.61112 -1.913746,0.61112 z m 1.479535,-5.08188 q 0,-0.53071 -0.08041,-0.981 -0.06433,-0.45029 -0.241229,-0.77193 -0.160819,-0.32164 -0.450293,-0.49854 -0.289474,-0.1769 -0.723686,-0.1769 -0.723685,0 -1.222224,0.59503 -0.482457,0.59503 -0.530703,1.83334 z" />
      <path
         id="path1707"
         style="font-style:normal;font-variant:normal;font-weight:normal;font-stretch:normal;font-family:'Adelle Sans Cnd';-inkscape-font-specification:'Adelle Sans Cnd';fill:url(#linearGradient1695);fill-opacity:1;stroke-width:0.402045"
         d="m 53.139254,159.26984 q -1.029242,0 -1.479535,0.54679 -0.434211,0.54678 -0.434211,1.36696 0,0.75585 0.385966,1.17398 0.402047,0.41813 0.997077,0.69152 0.611113,0.25731 1.302634,0.46638 0.691522,0.20906 1.286552,0.57894 0.611112,0.35381 0.997078,0.96492 0.402047,0.61111 0.402047,1.65643 0,0.94884 -0.305556,1.60819 -0.305556,0.64328 -0.820177,1.04533 -0.498538,0.40205 -1.157896,0.57895 -0.643276,0.1769 -1.334798,0.1769 -0.739767,0 -1.383043,-0.19299 -0.627194,-0.19298 -1.109651,-0.59503 -0.466375,-0.40204 -0.771932,-1.02924 -0.289474,-0.64327 -0.369883,-1.52778 l 1.350879,-0.19298 q 0.08041,0.46637 0.209065,0.90059 0.144737,0.43421 0.402047,0.77193 0.257311,0.32163 0.659358,0.51462 0.41813,0.19298 1.029242,0.19298 0.418129,0 0.804095,-0.0965 0.385966,-0.0965 0.691522,-0.32164 0.305556,-0.22515 0.482457,-0.62719 0.1769,-0.40205 0.1769,-0.99708 0,-0.8041 -0.402047,-1.22223 -0.385966,-0.43421 -0.997078,-0.69152 -0.59503,-0.27339 -1.286552,-0.48245 -0.691521,-0.20907 -1.302634,-0.56287 -0.59503,-0.36988 -0.997077,-0.981 -0.385966,-0.62719 -0.385966,-1.70468 0,-0.73977 0.25731,-1.3348 0.257311,-0.59503 0.707604,-0.99707 0.450293,-0.41813 1.061405,-0.64328 0.627194,-0.22515 1.35088,-0.22515 0.67544,0 1.254388,0.16082 0.59503,0.16082 1.029242,0.54679 0.450293,0.38596 0.723685,1.01316 0.289474,0.62719 0.353802,1.54386 l -1.318716,0.1769 q -0.04825,-0.41813 -0.160819,-0.82018 -0.112573,-0.41813 -0.353802,-0.72368 -0.225146,-0.32164 -0.59503,-0.51462 -0.369884,-0.19299 -0.948832,-0.19299 z" />
      <path
         id="path1709"
         style="font-style:normal;font-variant:normal;font-weight:normal;font-stretch:normal;font-family:'Adelle Sans Cnd';-inkscape-font-specification:'Adelle Sans Cnd';fill:url(#linearGradient1695);fill-opacity:1;stroke-width:0.402045"
         d="m 62.354158,169.61051 q -0.273392,0.20906 -0.755849,0.3538 -0.466375,0.16082 -1.029241,0.16082 -1.061406,0 -1.576027,-0.54679 -0.498538,-0.54678 -0.498538,-1.80117 v -4.98539 h -1.061406 v -1.12573 h 1.061406 v -2.38012 l 1.431289,-0.20907 v 2.58919 h 1.913746 v 1.12573 h -1.913746 v 4.82457 q 0,0.65936 0.176901,0.99708 0.192982,0.32164 0.788013,0.32164 0.353801,0 0.659357,-0.0965 0.321638,-0.11257 0.546785,-0.27339 z" />
      <path
         id="path1711"
         style="font-style:normal;font-variant:normal;font-weight:normal;font-stretch:normal;font-family:'Adelle Sans Cnd';-inkscape-font-specification:'Adelle Sans Cnd';fill:url(#linearGradient1695);fill-opacity:1;stroke-width:0.402045"
         d="m 65.168461,170.12513 q -0.67544,0 -1.093569,-0.22515 -0.41813,-0.24123 -0.643276,-0.57895 -0.225147,-0.3538 -0.305556,-0.73977 -0.08041,-0.38596 -0.08041,-0.69152 0,-0.86842 0.289474,-1.39912 0.289475,-0.54679 0.75585,-0.83626 0.466375,-0.30556 1.045323,-0.41813 0.578949,-0.11257 1.157897,-0.11257 0.321638,0 0.562866,0.0161 0.241229,0 0.353802,0.0161 v -0.8845 q 0,-0.96492 -0.289474,-1.30264 -0.289474,-0.3538 -0.964914,-0.3538 -0.739767,0 -1.01316,0.33772 -0.25731,0.33772 -0.353801,1.04532 l -1.302634,-0.24123 q 0.176901,-1.15789 0.788013,-1.70468 0.611112,-0.54678 1.913746,-0.54678 0.643276,0 1.125733,0.12865 0.498539,0.12866 0.836259,0.4503 0.33772,0.32164 0.51462,0.8845 0.176901,0.54679 0.176901,1.41521 v 4.03656 q 0,0.33772 0.06433,0.49853 0.08041,0.14474 0.353802,0.14474 0.160819,0 0.418129,-0.0965 l 0.06433,0.86842 q -0.209065,0.12866 -0.498539,0.19299 -0.273392,0.0643 -0.546785,0.0643 -0.498539,0 -0.804095,-0.25731 -0.305556,-0.25731 -0.369883,-0.80409 -0.369884,0.49854 -0.916669,0.80409 -0.530702,0.28948 -1.238306,0.28948 z m 0.434211,-1.09357 q 0.498539,0 0.93275,-0.27339 0.434212,-0.28948 0.67544,-0.65936 v -1.94591 q -0.06433,-0.0161 -0.241228,-0.0322 -0.160819,-0.0161 -0.321638,-0.0161 -0.33772,0 -0.723686,0.0482 -0.385965,0.0322 -0.723685,0.19298 -0.321638,0.14474 -0.530703,0.46638 -0.209065,0.30555 -0.209065,0.86842 0,0.54678 0.225147,0.94883 0.241229,0.40205 0.916668,0.40205 z" />
      <path
         id="path1713"
         style="font-style:normal;font-variant:normal;font-weight:normal;font-stretch:normal;font-family:'Adelle Sans Cnd';-inkscape-font-specification:'Adelle Sans Cnd';fill:url(#linearGradient1695);fill-opacity:1;stroke-width:0.402045"
         d="m 74.769346,169.61051 q -0.273392,0.20906 -0.755849,0.3538 -0.466375,0.16082 -1.029242,0.16082 -1.061405,0 -1.576026,-0.54679 -0.498539,-0.54678 -0.498539,-1.80117 v -4.98539 h -1.061405 v -1.12573 h 1.061405 v -2.38012 l 1.431289,-0.20907 v 2.58919 h 1.913747 v 1.12573 h -1.913747 v 4.82457 q 0,0.65936 0.176901,0.99708 0.192983,0.32164 0.788013,0.32164 0.353802,0 0.659358,-0.0965 0.321638,-0.11257 0.546785,-0.27339 z" />
      <path
         id="path1715"
         style="font-style:normal;font-variant:normal;font-weight:normal;font-stretch:normal;font-family:'Adelle Sans Cnd';-inkscape-font-specification:'Adelle Sans Cnd';fill:url(#linearGradient1695);fill-opacity:1;stroke-width:0.402045"
         d="M 75.943311,161.66605 H 77.3746 v 8.26609 h -1.431289 z m 0.723685,-1.6886 q -0.466375,0 -0.723685,-0.25731 -0.241229,-0.27339 -0.241229,-0.77193 0,-0.48246 0.241229,-0.73977 0.25731,-0.27339 0.723685,-0.27339 0.450294,0 0.691522,0.27339 0.25731,0.25731 0.25731,0.73977 0,0.49854 -0.25731,0.77193 -0.241228,0.25731 -0.691522,0.25731 z" />
      <path
         id="path1717"
         style="font-style:normal;font-variant:normal;font-weight:normal;font-stretch:normal;font-family:'Adelle Sans Cnd';-inkscape-font-specification:'Adelle Sans Cnd';fill:url(#linearGradient1695);fill-opacity:1;stroke-width:0.402045"
         d="m 82.215231,170.12513 q -0.852341,0 -1.479535,-0.30556 -0.611112,-0.30556 -1.01316,-0.85234 -0.385965,-0.56287 -0.578948,-1.3348 -0.176901,-0.78801 -0.176901,-1.75292 0,-2.21931 0.868422,-3.29679 0.884505,-1.07749 2.508777,-1.07749 1.383043,0 2.042401,0.78801 0.67544,0.77193 0.739767,2.05848 l -1.334797,0.19299 q -0.09649,-0.94883 -0.450293,-1.38305 -0.33772,-0.45029 -1.01316,-0.45029 -0.964914,0 -1.415207,0.7076 -0.434212,0.70761 -0.434212,2.36404 0,3.15206 1.833337,3.15206 0.723685,0 1.093569,-0.41813 0.385966,-0.41813 0.514621,-1.35088 l 1.254388,0.25731 q -0.06433,0.54678 -0.273392,1.04532 -0.192983,0.48246 -0.546785,0.85234 -0.33772,0.36989 -0.868422,0.59503 -0.530703,0.20907 -1.27047,0.20907 z" />
      <path
         id="path1719"
         style="font-style:normal;font-variant:normal;font-weight:normal;font-stretch:normal;font-family:'Adelle Sans Cnd';-inkscape-font-specification:'Adelle Sans Cnd';fill:url(#linearGradient1695);fill-opacity:1;stroke-width:0.402045"
         d="m 99.471067,169.93214 h -1.350879 v -10.13159 h -0.03216 l -2.766087,10.13159 h -1.543862 l -2.846496,-10.14767 h -0.03216 v 10.14767 h -1.302634 v -11.64329 h 2.154975 l 2.830414,10.01902 h 0.01608 l 2.701759,-10.01902 h 2.171056 z" />
      <path
         id="path1721"
         style="font-style:normal;font-variant:normal;font-weight:normal;font-stretch:normal;font-family:'Adelle Sans Cnd';-inkscape-font-specification:'Adelle Sans Cnd';fill:url(#linearGradient1695);fill-opacity:1;stroke-width:0.402045"
         d="m 103.47545,170.12513 q -0.67544,0 -1.09357,-0.22515 -0.41813,-0.24123 -0.64327,-0.57895 -0.22515,-0.3538 -0.30556,-0.73977 -0.0804,-0.38596 -0.0804,-0.69152 0,-0.86842 0.28948,-1.39912 0.28947,-0.54679 0.75585,-0.83626 0.46637,-0.30556 1.04532,-0.41813 0.57895,-0.11257 1.1579,-0.11257 0.32163,0 0.56286,0.0161 0.24123,0 0.3538,0.0161 v -0.8845 q 0,-0.96492 -0.28947,-1.30264 -0.28947,-0.3538 -0.96491,-0.3538 -0.73977,0 -1.01316,0.33772 -0.25731,0.33772 -0.35381,1.04532 l -1.30263,-0.24123 q 0.1769,-1.15789 0.78801,-1.70468 0.61112,-0.54678 1.91375,-0.54678 0.64328,0 1.12573,0.12865 0.49854,0.12866 0.83626,0.4503 0.33772,0.32164 0.51462,0.8845 0.1769,0.54679 0.1769,1.41521 v 4.03656 q 0,0.33772 0.0643,0.49853 0.0804,0.14474 0.3538,0.14474 0.16082,0 0.41813,-0.0965 l 0.0643,0.86842 q -0.20907,0.12866 -0.49854,0.19299 -0.27339,0.0643 -0.54678,0.0643 -0.49854,0 -0.8041,-0.25731 -0.30556,-0.25731 -0.36988,-0.80409 -0.36989,0.49854 -0.91667,0.80409 -0.5307,0.28948 -1.23831,0.28948 z m 0.43421,-1.09357 q 0.49854,0 0.93275,-0.27339 0.43422,-0.28948 0.67544,-0.65936 v -1.94591 q -0.0643,-0.0161 -0.24122,-0.0322 -0.16082,-0.0161 -0.32164,-0.0161 -0.33772,0 -0.72369,0.0482 -0.38596,0.0322 -0.72368,0.19298 -0.32164,0.14474 -0.53071,0.46638 -0.20906,0.30555 -0.20906,0.86842 0,0.54678 0.22515,0.94883 0.24122,0.40205 0.91666,0.40205 z" />
      <path
         id="path1723"
         style="font-style:normal;font-variant:normal;font-weight:normal;font-stretch:normal;font-family:'Adelle Sans Cnd';-inkscape-font-specification:'Adelle Sans Cnd';fill:url(#linearGradient1695);fill-opacity:1;stroke-width:0.402045"
         d="m 113.06027,162.98476 q -0.12866,-0.0322 -0.24123,-0.0322 -0.0965,0 -0.20907,0 -0.61111,0 -1.12573,0.24123 -0.51462,0.24123 -0.8845,0.64327 v 6.09504 h -1.43129 v -8.26609 h 1.22222 l 0.12866,1.09357 h 0.0161 q 0.41813,-0.73977 0.93275,-0.99708 0.5307,-0.25731 1.20614,-0.25731 0.0965,0 0.19298,0.0161 0.11258,0 0.19299,0.0161 z" />
      <path
         id="path1725"
         style="font-style:normal;font-variant:normal;font-weight:normal;font-stretch:normal;font-family:'Adelle Sans Cnd';-inkscape-font-specification:'Adelle Sans Cnd';fill:url(#linearGradient1695);fill-opacity:1;stroke-width:0.402045"
         d="m 115.68159,165.38097 2.87866,-3.71492 h 1.59211 l -2.38012,3.05556 2.55702,5.21053 h -1.54386 l -2.0424,-4.21345 -1.06141,1.33479 v 2.87866 h -1.43129 v -12.14183 h 1.43129 z" />
      <path
         id="path1727"
         style="font-style:normal;font-variant:normal;font-weight:normal;font-stretch:normal;font-family:'Adelle Sans Cnd';-inkscape-font-specification:'Adelle Sans Cnd';fill:url(#linearGradient1695);fill-opacity:1;stroke-width:0.402045"
         d="m 123.54559,170.12513 q -0.77193,0 -1.30264,-0.28948 -0.51462,-0.28947 -0.85234,-0.82017 -0.32164,-0.54679 -0.46637,-1.30264 -0.12866,-0.77193 -0.12866,-1.72076 0,-2.15498 0.70761,-3.31287 0.7076,-1.17398 2.13889,-1.17398 0.75585,0 1.22222,0.24123 0.48246,0.24123 0.8041,0.51462 v -4.47077 h 1.43129 v 12.14183 h -1.22223 l -0.0965,-0.78801 -0.0322,-0.0161 q -0.4503,0.45029 -1.01316,0.72368 -0.56287,0.2734 -1.19006,0.2734 z m 0.36988,-1.17398 q 0.46638,0 0.93275,-0.25731 0.46638,-0.25731 0.82018,-0.61111 v -4.69592 q -0.36989,-0.28947 -0.78802,-0.48246 -0.40204,-0.20906 -0.94883,-0.20906 -0.49854,0 -0.82017,0.24123 -0.32164,0.24123 -0.49854,0.67544 -0.1769,0.43421 -0.24123,1.02924 -0.0643,0.59503 -0.0643,1.30263 0,1.64036 0.36988,2.33188 0.38597,0.67544 1.23831,0.67544 z" />
      <path
         id="path1729"
         style="font-style:normal;font-variant:normal;font-weight:normal;font-stretch:normal;font-family:'Adelle Sans Cnd';-inkscape-font-specification:'Adelle Sans Cnd';fill:url(#linearGradient1695);fill-opacity:1;stroke-width:0.402045"
         d="m 131.97247,170.12513 q -0.99708,0 -1.64035,-0.36989 -0.6272,-0.38596 -0.99708,-0.99707 -0.3538,-0.6272 -0.48246,-1.38305 -0.12865,-0.77193 -0.12865,-1.54386 0,-1.12573 0.24123,-1.92983 0.25731,-0.82018 0.7076,-1.35088 0.45029,-0.5307 1.07749,-0.78801 0.62719,-0.25731 1.38304,-0.25731 0.93275,0 1.54386,0.33772 0.6272,0.32164 0.99708,0.8845 0.36988,0.56287 0.51462,1.3348 0.16082,0.77193 0.16082,1.65644 0,0.91666 -0.1769,1.72076 -0.16082,0.80409 -0.54679,1.39912 -0.38596,0.59504 -1.04532,0.94884 -0.64328,0.33772 -1.60819,0.33772 z m 0.0965,-1.12574 q 0.93275,0 1.36696,-0.80409 0.43422,-0.8041 0.43422,-2.46053 0,-1.47954 -0.38597,-2.26755 -0.36988,-0.80409 -1.39913,-0.80409 -0.57894,0 -0.94883,0.27339 -0.3538,0.25731 -0.56286,0.69152 -0.20907,0.43421 -0.28948,1.01316 -0.0804,0.56287 -0.0804,1.19006 0,3.16813 1.8655,3.16813 z" />
      <path
         id="path1731"
         style="font-style:normal;font-variant:normal;font-weight:normal;font-stretch:normal;font-family:'Adelle Sans Cnd';-inkscape-font-specification:'Adelle Sans Cnd';fill:url(#linearGradient1695);fill-opacity:1;stroke-width:0.402045"
         d="m 138.13182,169.93214 -2.09065,-8.26609 h 1.43129 l 1.5117,6.78656 h 0.0322 l 1.44737,-6.78656 h 1.5117 l 1.39913,6.7544 h 0.0322 l 1.5117,-6.7544 h 1.38304 l -2.09064,8.26609 h -1.65644 l -1.36696,-6.52925 h -0.0322 l -1.31872,6.52925 z" />
      <path
         id="path1733"
         style="font-style:normal;font-variant:normal;font-weight:normal;font-stretch:normal;font-family:'Adelle Sans Cnd';-inkscape-font-specification:'Adelle Sans Cnd';fill:url(#linearGradient1695);fill-opacity:1;stroke-width:0.402045"
         d="m 147.41105,161.66605 h 1.25439 l 0.0804,0.8845 h 0.0161 q 0.49854,-0.45029 1.06141,-0.73977 0.57895,-0.30555 1.28655,-0.30555 0.56287,0 0.981,0.14474 0.43421,0.12865 0.73976,0.45029 0.30556,0.32164 0.4503,0.85234 0.16082,0.5307 0.16082,1.31872 v 5.66082 h -1.43129 v -5.54825 q 0,-0.77193 -0.24123,-1.20614 -0.22515,-0.43421 -0.94883,-0.43421 -0.6272,0 -1.12574,0.27339 -0.48245,0.27339 -0.85234,0.64327 v 6.27194 h -1.43129 z" />
      <path
         id="path1735"
         style="font-style:normal;font-variant:normal;font-weight:normal;font-stretch:normal;font-family:'Adelle Sans Cnd';-inkscape-font-specification:'Adelle Sans Cnd';fill:url(#linearGradient1695);fill-opacity:1;stroke-width:0.402045"
         d="m 159.82626,168.69384 h 4.58335 v 1.2383 h -6.03072 v -11.64329 h 5.85381 v 1.22222 h -4.40644 v 3.92399 h 4.13305 v 1.2383 h -4.13305 z" />
      <path
         id="path1737"
         style="font-style:normal;font-variant:normal;font-weight:normal;font-stretch:normal;font-family:'Adelle Sans Cnd';-inkscape-font-specification:'Adelle Sans Cnd';fill:url(#linearGradient1695);fill-opacity:1;stroke-width:0.402045"
         d="m 168.34966,170.12513 q -0.77193,0 -1.30263,-0.28948 -0.51462,-0.28947 -0.85234,-0.82017 -0.32164,-0.54679 -0.46638,-1.30264 -0.12865,-0.77193 -0.12865,-1.72076 0,-2.15498 0.7076,-3.31287 0.70761,-1.17398 2.1389,-1.17398 0.75585,0 1.22222,0.24123 0.48246,0.24123 0.8041,0.51462 v -4.47077 h 1.43128 v 12.14183 h -1.22222 l -0.0965,-0.78801 -0.0322,-0.0161 q -0.45029,0.45029 -1.01315,0.72368 -0.56287,0.2734 -1.19007,0.2734 z m 0.36989,-1.17398 q 0.46637,0 0.93275,-0.25731 0.46637,-0.25731 0.82018,-0.61111 v -4.69592 q -0.36989,-0.28947 -0.78802,-0.48246 -0.40205,-0.20906 -0.94883,-0.20906 -0.49854,0 -0.82018,0.24123 -0.32163,0.24123 -0.49854,0.67544 -0.1769,0.43421 -0.24122,1.02924 -0.0643,0.59503 -0.0643,1.30263 0,1.64036 0.36988,2.33188 0.38597,0.67544 1.23831,0.67544 z" />
      <path
         id="path1739"
         style="font-style:normal;font-variant:normal;font-weight:normal;font-stretch:normal;font-family:'Adelle Sans Cnd';-inkscape-font-specification:'Adelle Sans Cnd';fill:url(#linearGradient1695);fill-opacity:1;stroke-width:0.402045"
         d="m 173.94613,161.66605 h 1.43129 v 8.26609 h -1.43129 z m 0.72369,-1.6886 q -0.46638,0 -0.72369,-0.25731 -0.24122,-0.27339 -0.24122,-0.77193 0,-0.48246 0.24122,-0.73977 0.25731,-0.27339 0.72369,-0.27339 0.45029,0 0.69152,0.27339 0.25731,0.25731 0.25731,0.73977 0,0.49854 -0.25731,0.77193 -0.24123,0.25731 -0.69152,0.25731 z" />
      <path
         id="path1741"
         style="font-style:normal;font-variant:normal;font-weight:normal;font-stretch:normal;font-family:'Adelle Sans Cnd';-inkscape-font-specification:'Adelle Sans Cnd';fill:url(#linearGradient1695);fill-opacity:1;stroke-width:0.402045"
         d="m 181.48852,169.61051 q -0.2734,0.20906 -0.75585,0.3538 -0.46638,0.16082 -1.02924,0.16082 -1.06141,0 -1.57603,-0.54679 -0.49854,-0.54678 -0.49854,-1.80117 v -4.98539 h -1.06141 v -1.12573 h 1.06141 v -2.38012 l 1.43129,-0.20907 v 2.58919 h 1.91375 v 1.12573 h -1.91375 v 4.82457 q 0,0.65936 0.1769,0.99708 0.19298,0.32164 0.78801,0.32164 0.3538,0 0.65936,-0.0965 0.32164,-0.11257 0.54679,-0.27339 z" />
      <path
         id="path1743"
         style="font-style:normal;font-variant:normal;font-weight:normal;font-stretch:normal;font-family:'Adelle Sans Cnd';-inkscape-font-specification:'Adelle Sans Cnd';fill:url(#linearGradient1695);fill-opacity:1;stroke-width:0.402045"
         d="m 185.36423,170.12513 q -0.99708,0 -1.64036,-0.36989 -0.62719,-0.38596 -0.99708,-0.99707 -0.3538,-0.6272 -0.48245,-1.38305 -0.12866,-0.77193 -0.12866,-1.54386 0,-1.12573 0.24123,-1.92983 0.25731,-0.82018 0.7076,-1.35088 0.4503,-0.5307 1.07749,-0.78801 0.62719,-0.25731 1.38304,-0.25731 0.93275,0 1.54387,0.33772 0.62719,0.32164 0.99707,0.8845 0.36989,0.56287 0.51462,1.3348 0.16082,0.77193 0.16082,1.65644 0,0.91666 -0.1769,1.72076 -0.16082,0.80409 -0.54678,1.39912 -0.38597,0.59504 -1.04532,0.94884 -0.64328,0.33772 -1.60819,0.33772 z m 0.0965,-1.12574 q 0.93275,0 1.36696,-0.80409 0.43421,-0.8041 0.43421,-2.46053 0,-1.47954 -0.38597,-2.26755 -0.36988,-0.80409 -1.39912,-0.80409 -0.57895,0 -0.94883,0.27339 -0.35381,0.25731 -0.56287,0.69152 -0.20906,0.43421 -0.28947,1.01316 -0.0804,0.56287 -0.0804,1.19006 0,3.16813 1.8655,3.16813 z" />
      <path
         id="path1745"
         style="font-style:normal;font-variant:normal;font-weight:normal;font-stretch:normal;font-family:'Adelle Sans Cnd';-inkscape-font-specification:'Adelle Sans Cnd';fill:url(#linearGradient1695);fill-opacity:1;stroke-width:0.402045"
         d="m 194.28968,162.98476 q -0.12866,-0.0322 -0.24123,-0.0322 -0.0965,0 -0.20907,0 -0.61111,0 -1.12573,0.24123 -0.51462,0.24123 -0.88451,0.64327 v 6.09504 h -1.43128 v -8.26609 h 1.22222 l 0.12866,1.09357 h 0.0161 q 0.41813,-0.73977 0.93275,-0.99708 0.5307,-0.25731 1.20614,-0.25731 0.0965,0 0.19298,0.0161 0.11258,0 0.19299,0.0161 z" />
    </g>
  </g>
</svg>
